<?xml version="1.0" encoding="UTF-8"?>
<svg id="Layer_1" data-name="Layer 1" xmlns="http://www.w3.org/2000/svg" version="1.1" viewBox="0 0 505.1 121.6">
  <defs>
    <style>
      .cls-1 {
        fill: #fbb700;
      }

      .cls-1, .cls-2 {
        stroke-width: 0px;
      }

      .cls-2 {
        fill: #fff;
      }
    </style>
  </defs>
  <path class="cls-2" d="M423.1,61.7c0-9.9-3.2-18.3-9.5-25s-14.4-10.1-24.1-10.1-18.7,3.4-25.3,10c-6.6,6.7-9.8,15.1-9.8,25.1s.9,10.3,2.8,14.7h18.2v17.7c4.5,1.8,9.7,2.7,15.4,2.7,12.8,0,22.4-4.7,29-14.2l-13.8-8c-3.4,4.4-8.3,6.6-14.9,6.6-10.2,0-16.5-4.2-18.8-12.5h50.2c.3-2.4.6-4.8.6-7h0ZM372,55.5c1-4.2,3-7.6,6-9.9,3-2.3,6.8-3.5,11.4-3.5s7.4,1.1,10.4,3.3c3.1,2.2,5.1,5.6,6,10.1h-33.8Z"/>
  <rect class="cls-1" x="411.7" y="14.1" width="20.7" height="20.7"/>
  <path class="cls-2" d="M92.9,96.8c-9.2,0-17-2.1-23.3-6.2s-10.7-9.7-13.3-16.8l15.7-9.2c3.6,9.5,10.8,14.2,21.4,14.2s8.9-.9,11.3-2.8,3.6-4.2,3.6-7-1.5-5.8-4.4-7.6-8.2-3.8-15.7-5.9c-4.2-1.2-7.7-2.5-10.6-3.7s-5.8-2.9-8.6-5c-2.9-2.1-5.1-4.7-6.6-7.9s-2.3-6.9-2.3-11.2c0-8.4,3-15.1,9-20.1C75.1,2.6,82.3,0,90.7,0s14.2,1.8,19.9,5.5c5.7,3.7,10.2,8.8,13.4,15.4l-15.4,8.9c-3.7-8-9.7-12-17.8-12s-6.8.9-9,2.6-3.3,4-3.3,6.7,1.2,5.3,3.7,7.1c2.4,1.8,7.1,3.8,14,5.9,2.8.9,5,1.6,6.5,2.1s3.5,1.2,6,2.3c2.5,1,4.5,2,5.9,2.9s3,2.1,4.7,3.6c1.8,1.5,3.1,3.1,4.1,4.7s1.7,3.5,2.4,5.8c.7,2.3,1,4.7,1,7.4,0,8.6-3.1,15.4-9.4,20.5-6.4,4.8-14.5,7.3-24.5,7.3h0Z"/>
  <path class="cls-2" d="M173.1,26.6c9,0,16.6,3.4,22.9,10.2s9.5,15.1,9.5,24.9-3.2,18.2-9.5,24.9-14,10.2-22.9,10.2-16.5-3.2-21.5-9.7v34.5h-17.2V28.5h17.2v7.9c5-6.6,12.2-9.8,21.5-9.8h0ZM156.8,75.2c3.5,3.5,7.8,5.2,13.2,5.2s9.7-1.8,13.2-5.2,5.2-8,5.2-13.5-1.8-10-5.2-13.5-7.9-5.2-13.2-5.2-9.7,1.8-13.2,5.2c-3.5,3.5-5.2,8-5.2,13.5s1.7,10,5.2,13.5Z"/>
  <path class="cls-2" d="M264.8,28.5h17.2v66.5h-17.2v-7.9c-5.1,6.5-12.4,9.7-21.7,9.7s-16.5-3.4-22.8-10.2-9.5-15.1-9.5-24.9,3.2-18.2,9.5-24.9,13.9-10.2,22.8-10.2,16.5,3.2,21.7,9.7v-7.8h0ZM233.1,75.2c3.5,3.5,7.8,5.2,13.2,5.2s9.7-1.8,13.2-5.2,5.2-8,5.2-13.5-1.8-10-5.2-13.5-7.9-5.2-13.2-5.2-9.7,1.8-13.2,5.2c-3.5,3.5-5.2,8-5.2,13.5s1.7,10,5.2,13.5Z"/>
  <path class="cls-2" d="M323.4,96.8c-10,0-18.4-3.4-25.1-10.1s-10-15.1-10-25,3.3-18.3,10-25,15-10.1,25.1-10.1,12.4,1.5,17.7,4.6c5.3,3.1,9.3,7.3,12.1,12.5l-14.8,8.6c-1.3-2.8-3.3-4.9-6-6.5s-5.7-2.4-9.1-2.4c-5.1,0-9.4,1.7-12.8,5.1-3.4,3.4-5,7.8-5,13.1s1.7,9.6,5,13,7.6,5.1,12.8,5.1,6.5-.8,9.2-2.3,4.7-3.7,6-6.5l14.9,8.5c-2.9,5.2-7,9.4-12.4,12.6s-11.1,4.8-17.6,4.8h0Z"/>
  <g>
    <path class="cls-2" d="M15.6,37.8v4h-5.7v17.2h-4.2v-17.2H0v-4h15.6Z"/>
    <path class="cls-2" d="M29.9,37.8h4.1v21.2h-4.1v-8.8h-7.9v8.8h-4.2v-21.2h4.2v8.4h7.9v-8.4Z"/>
    <path class="cls-2" d="M42.2,55h8.9v4h-13.1v-21.2h13v4h-8.8v4.5h8v3.9h-8v4.8h0Z"/>
  </g>
  <g>
    <path class="cls-2" d="M447.7,34.9l-4.2-7.2h-3.1v7.2h-4.1V14.1h8.3c1.9,0,3.5.7,4.9,2,1.3,1.3,2,3,2,4.9s-.4,2.5-1.1,3.6-1.7,1.9-2.9,2.5l4.6,7.8h-4.4ZM440.4,18v6.1h4.2c.8,0,1.4-.3,2-.9s.8-1.3.8-2.2-.3-1.6-.8-2.2-1.2-.9-2-.9h-4.2Z"/>
    <path class="cls-2" d="M459,30.9h8.7v3.9h-12.8V14.1h12.7v3.9h-8.6v4.4h7.8v3.9h-7.8v4.6h0Z"/>
    <path class="cls-2" d="M483.1,14.1h4.1v20.7h-3.2l-8.9-12.7v12.7h-4.1V14.1h3.1l8.9,12.6v-12.6h.1Z"/>
    <path class="cls-2" d="M505.1,14.1v3.9h-5.6v16.8h-4.1v-16.8h-5.6v-3.9h15.3Z"/>
  </g>
</svg>