<?xml version="1.0" encoding="utf-8"?>
<!-- Generator: Adobe Illustrator 28.1.0, SVG Export Plug-In . SVG Version: 6.00 Build 0)  -->
<svg version="1.2" baseProfile="tiny" id="Layer_1" xmlns="http://www.w3.org/2000/svg" xmlns:xlink="http://www.w3.org/1999/xlink"
	 x="0px" y="0px" viewBox="0 0 505.1 121.6" overflow="visible" xml:space="preserve">
<path fill="#0D1E2B" d="M423.1,61.7c0-9.9-3.2-18.3-9.5-25c-6.3-6.7-14.4-10.1-24.1-10.1c-10.3,0-18.7,3.4-25.3,10
	c-6.6,6.7-9.8,15.1-9.8,25.1c0,5.4,0.9,10.3,2.8,14.7h18.2v17.7c4.5,1.8,9.7,2.7,15.4,2.7c12.8,0,22.4-4.7,29-14.2l-13.8-8
	c-3.4,4.4-8.3,6.6-14.9,6.6c-10.2,0-16.5-4.2-18.8-12.5h50.2C422.8,66.3,423.1,63.9,423.1,61.7L423.1,61.7z M372,55.5
	c1-4.2,3-7.6,6-9.9c3-2.3,6.8-3.5,11.4-3.5c3.9,0,7.4,1.1,10.4,3.3c3.1,2.2,5.1,5.6,6,10.1H372z"/>
<rect x="411.7" y="14.1" fill="#FBB700" width="20.7" height="20.7"/>
<path fill="#0D1E2B" d="M92.9,96.8c-9.2,0-17-2.1-23.3-6.2s-10.7-9.7-13.3-16.8L72,64.6c3.6,9.5,10.8,14.2,21.4,14.2
	c5.1,0,8.9-0.9,11.3-2.8c2.4-1.9,3.6-4.2,3.6-7c0-3.3-1.5-5.8-4.4-7.6c-2.9-1.8-8.2-3.8-15.7-5.9c-4.2-1.2-7.7-2.5-10.6-3.7
	s-5.8-2.9-8.6-5c-2.9-2.1-5.1-4.7-6.6-7.9c-1.5-3.2-2.3-6.9-2.3-11.2c0-8.4,3-15.1,9-20.1c6-5,13.2-7.5,21.6-7.5
	c7.5,0,14.2,1.8,19.9,5.5c5.7,3.7,10.2,8.8,13.4,15.4l-15.4,8.9c-3.7-8-9.7-12-17.8-12c-3.8,0-6.8,0.9-9,2.6s-3.3,4-3.3,6.7
	c0,2.9,1.2,5.3,3.7,7.1c2.4,1.8,7.1,3.8,14,5.9c2.8,0.9,5,1.6,6.5,2.1c1.5,0.5,3.5,1.2,6,2.3c2.5,1,4.5,2,5.9,2.9
	c1.4,0.9,3,2.1,4.7,3.6c1.8,1.5,3.1,3.1,4.1,4.7s1.7,3.5,2.4,5.8c0.7,2.3,1,4.7,1,7.4c0,8.6-3.1,15.4-9.4,20.5
	C111,94.3,102.9,96.8,92.9,96.8L92.9,96.8z"/>
<path fill="#0D1E2B" d="M173.1,26.6c9,0,16.6,3.4,22.9,10.2s9.5,15.1,9.5,24.9s-3.2,18.2-9.5,24.9s-14,10.2-22.9,10.2
	s-16.5-3.2-21.5-9.7v34.5h-17.2V28.5h17.2v7.9C156.6,29.8,163.8,26.6,173.1,26.6L173.1,26.6z M156.8,75.2c3.5,3.5,7.8,5.2,13.2,5.2
	s9.7-1.8,13.2-5.2s5.2-8,5.2-13.5s-1.8-10-5.2-13.5s-7.9-5.2-13.2-5.2s-9.7,1.8-13.2,5.2c-3.5,3.5-5.2,8-5.2,13.5
	S153.3,71.7,156.8,75.2z"/>
<path fill="#0D1E2B" d="M264.8,28.5h17.2V95h-17.2v-7.9c-5.1,6.5-12.4,9.7-21.7,9.7s-16.5-3.4-22.8-10.2s-9.5-15.1-9.5-24.9
	s3.2-18.2,9.5-24.9s13.9-10.2,22.8-10.2c9.3,0,16.5,3.2,21.7,9.7V28.5L264.8,28.5z M233.1,75.2c3.5,3.5,7.8,5.2,13.2,5.2
	s9.7-1.8,13.2-5.2s5.2-8,5.2-13.5s-1.8-10-5.2-13.5s-7.9-5.2-13.2-5.2s-9.7,1.8-13.2,5.2c-3.5,3.5-5.2,8-5.2,13.5
	S229.6,71.7,233.1,75.2z"/>
<path fill="#0D1E2B" d="M323.4,96.8c-10,0-18.4-3.4-25.1-10.1c-6.7-6.7-10-15.1-10-25s3.3-18.3,10-25c6.7-6.7,15-10.1,25.1-10.1
	c6.5,0,12.4,1.5,17.7,4.6s9.3,7.3,12.1,12.5l-14.8,8.6c-1.3-2.8-3.3-4.9-6-6.5c-2.7-1.6-5.7-2.4-9.1-2.4c-5.1,0-9.4,1.7-12.8,5.1
	c-3.4,3.4-5,7.8-5,13.1s1.7,9.6,5,13s7.6,5.1,12.8,5.1c3.5,0,6.5-0.8,9.2-2.3s4.7-3.7,6-6.5l14.9,8.5c-2.9,5.2-7,9.4-12.4,12.6
	S329.9,96.8,323.4,96.8L323.4,96.8z"/>
<g>
	<path fill="#0D1E2B" d="M15.6,37.8v4H9.9V59H5.7V41.8H0v-4H15.6L15.6,37.8z"/>
	<path fill="#0D1E2B" d="M29.9,37.8h4.1V59h-4.1v-8.8h-7.9V59h-4.2V37.8h4.2v8.4h7.9V37.8z"/>
	<path fill="#0D1E2B" d="M42.2,55h8.9v4H38V37.8h13v4h-8.8v4.5h8v3.9h-8L42.2,55L42.2,55z"/>
</g>
<g>
	<path fill="#0D1E2B" d="M447.7,34.9l-4.2-7.2h-3.1v7.2h-4.1V14.1h8.3c1.9,0,3.5,0.7,4.9,2c1.3,1.3,2,3,2,4.9c0,1.3-0.4,2.5-1.1,3.6
		c-0.7,1.1-1.7,1.9-2.9,2.5l4.6,7.8L447.7,34.9L447.7,34.9z M440.4,18v6.1h4.2c0.8,0,1.4-0.3,2-0.9s0.8-1.3,0.8-2.2
		s-0.3-1.6-0.8-2.2s-1.2-0.9-2-0.9H440.4z"/>
	<path fill="#0D1E2B" d="M459,30.9h8.7v3.9h-12.8V14.1h12.7V18H459v4.4h7.8v3.9H459L459,30.9L459,30.9z"/>
	<path fill="#0D1E2B" d="M483.1,14.1h4.1v20.7H484l-8.9-12.7v12.7h-4.1V14.1h3.1l8.9,12.6V14.1z"/>
	<path fill="#0D1E2B" d="M505.1,14.1V18h-5.6v16.8h-4.1V18h-5.6v-3.9H505.1L505.1,14.1z"/>
</g>
</svg>
